<svg width="149" height="44" viewBox="0 0 149 44" fill="none" xmlns="http://www.w3.org/2000/svg">
<path d="M21.8672 5.18125C24.9497 2.27242 29.7659 2.27242 32.8484 5.18125L44.5034 16.1797C47.8493 19.3371 47.8493 24.6591 44.5034 27.8165L32.8484 38.8149C29.7659 41.7237 24.9497 41.7237 21.8672 38.8149L10.2121 27.8165C6.86624 24.6591 6.86624 19.3371 10.2121 16.1797L21.8672 5.18125Z" fill="#EAEAEA"/>
<path d="M18.4107 5.18125C21.4932 2.27242 26.3093 2.27242 29.3918 5.18125L41.0469 16.1797C44.3928 19.3371 44.3928 24.6591 41.0469 27.8165L29.3918 38.8149C26.3093 41.7237 21.4932 41.7237 18.4107 38.8149L6.75558 27.8165C3.40969 24.6591 3.4097 19.3371 6.75559 16.1797L18.4107 5.18125Z" fill="#3063C5"/>
<path d="M18.04 24.7561H13.72V26.9961H12.44V21.3961L13.56 20.2761H12.44V19.1561H18.04V20.2761H13.72V24.5961L14.68 23.6361H18.04V24.7561ZM27.1638 26.9961H25.5318L22.2038 23.6361H25.7238V20.2761H21.5638V26.9961H20.2838V21.3801L21.4038 20.2761H20.2838V19.1561H25.8838C26.1824 19.1561 26.4438 19.2681 26.6678 19.4921C26.8918 19.7161 27.0038 19.9774 27.0038 20.2761V23.3161C27.0038 24.1694 26.6304 24.5961 25.8838 24.5961H24.9238V24.7721L27.1638 26.9961ZM36.2069 23.6361C36.2069 23.9348 36.0949 24.1961 35.8709 24.4201C35.6469 24.6441 35.3855 24.7561 35.0869 24.7561H30.7669V26.9961H29.4869V21.3961L30.6069 20.2761H29.4869V19.1561H35.0869C35.3855 19.1561 35.6469 19.2681 35.8709 19.4921C36.0949 19.7161 36.2069 19.9774 36.2069 20.2761V23.6361ZM34.9269 23.6361V20.2761H30.7669V24.5961L31.7269 23.6361H34.9269Z" fill="white"/>
<path d="M54.53 28C54.43 28 54.345 27.965 54.275 27.895C54.205 27.825 54.17 27.74 54.17 27.64V17.875C54.17 17.765 54.205 17.675 54.275 17.605C54.345 17.535 54.43 17.5 54.53 17.5H61.04C61.15 17.5 61.24 17.535 61.31 17.605C61.38 17.675 61.415 17.765 61.415 17.875V18.925C61.415 19.035 61.38 19.125 61.31 19.195C61.24 19.255 61.15 19.285 61.04 19.285H56.225V22.135H60.74C60.85 22.135 60.94 22.17 61.01 22.24C61.08 22.31 61.115 22.4 61.115 22.51V23.56C61.115 23.66 61.08 23.745 61.01 23.815C60.94 23.885 60.85 23.92 60.74 23.92H56.225V27.64C56.225 27.74 56.19 27.825 56.12 27.895C56.05 27.965 55.96 28 55.85 28H54.53ZM63.476 28C63.376 28 63.291 27.965 63.221 27.895C63.151 27.825 63.116 27.74 63.116 27.64V20.56C63.116 20.46 63.151 20.375 63.221 20.305C63.291 20.235 63.376 20.2 63.476 20.2H64.721C64.831 20.2 64.916 20.235 64.976 20.305C65.046 20.375 65.081 20.46 65.081 20.56V27.64C65.081 27.74 65.046 27.825 64.976 27.895C64.916 27.965 64.831 28 64.721 28H63.476ZM63.416 18.91C63.316 18.91 63.231 18.875 63.161 18.805C63.091 18.735 63.056 18.65 63.056 18.55V17.47C63.056 17.37 63.091 17.285 63.161 17.215C63.231 17.145 63.316 17.11 63.416 17.11H64.781C64.891 17.11 64.981 17.145 65.051 17.215C65.121 17.285 65.156 17.37 65.156 17.47V18.55C65.156 18.65 65.121 18.735 65.051 18.805C64.981 18.875 64.891 18.91 64.781 18.91H63.416ZM67.724 28C67.624 28 67.539 27.965 67.469 27.895C67.399 27.825 67.364 27.74 67.364 27.64V20.575C67.364 20.465 67.399 20.375 67.469 20.305C67.539 20.235 67.624 20.2 67.724 20.2H68.939C69.039 20.2 69.124 20.235 69.194 20.305C69.274 20.375 69.314 20.465 69.314 20.575V21.19C69.544 20.87 69.839 20.625 70.199 20.455C70.569 20.285 70.994 20.2 71.474 20.2H72.089C72.199 20.2 72.284 20.235 72.344 20.305C72.414 20.375 72.449 20.46 72.449 20.56V21.64C72.449 21.74 72.414 21.825 72.344 21.895C72.284 21.965 72.199 22 72.089 22H70.919C70.439 22 70.064 22.135 69.794 22.405C69.534 22.665 69.404 23.035 69.404 23.515V27.64C69.404 27.74 69.369 27.825 69.299 27.895C69.229 27.965 69.139 28 69.029 28H67.724ZM76.5739 28.15C75.9739 28.15 75.4589 28.08 75.0289 27.94C74.6089 27.8 74.2639 27.625 73.9939 27.415C73.7239 27.205 73.5239 26.995 73.3939 26.785C73.2639 26.575 73.1939 26.4 73.1839 26.26C73.1739 26.15 73.2039 26.065 73.2739 26.005C73.3539 25.935 73.4389 25.9 73.5289 25.9H74.7139C74.7539 25.9 74.7889 25.905 74.8189 25.915C74.8489 25.925 74.8889 25.955 74.9389 26.005C75.0689 26.115 75.2039 26.23 75.3439 26.35C75.4939 26.47 75.6689 26.575 75.8689 26.665C76.0689 26.745 76.3189 26.785 76.6189 26.785C77.0089 26.785 77.3339 26.71 77.5939 26.56C77.8639 26.4 77.9989 26.175 77.9989 25.885C77.9989 25.675 77.9389 25.505 77.8189 25.375C77.7089 25.245 77.4989 25.13 77.1889 25.03C76.8789 24.92 76.4389 24.805 75.8689 24.685C75.3089 24.555 74.8439 24.39 74.4739 24.19C74.1039 23.99 73.8289 23.74 73.6489 23.44C73.4689 23.14 73.3789 22.79 73.3789 22.39C73.3789 22 73.4939 21.63 73.7239 21.28C73.9639 20.92 74.3139 20.625 74.7739 20.395C75.2439 20.165 75.8239 20.05 76.5139 20.05C77.0539 20.05 77.5239 20.12 77.9239 20.26C78.3239 20.39 78.6539 20.555 78.9139 20.755C79.1839 20.955 79.3889 21.16 79.5289 21.37C79.6689 21.57 79.7439 21.745 79.7539 21.895C79.7639 22.005 79.7339 22.095 79.6639 22.165C79.5939 22.225 79.5139 22.255 79.4239 22.255H78.3139C78.2639 22.255 78.2189 22.245 78.1789 22.225C78.1389 22.205 78.0989 22.18 78.0589 22.15C77.9489 22.05 77.8289 21.945 77.6989 21.835C77.5689 21.715 77.4089 21.615 77.2189 21.535C77.0389 21.455 76.7989 21.415 76.4989 21.415C76.1189 21.415 75.8289 21.5 75.6289 21.67C75.4289 21.83 75.3289 22.035 75.3289 22.285C75.3289 22.455 75.3739 22.605 75.4639 22.735C75.5639 22.855 75.7589 22.97 76.0489 23.08C76.3389 23.19 76.7789 23.305 77.3689 23.425C78.0389 23.545 78.5689 23.725 78.9589 23.965C79.3589 24.195 79.6389 24.465 79.7989 24.775C79.9689 25.075 80.0539 25.41 80.0539 25.78C80.0539 26.23 79.9189 26.635 79.6489 26.995C79.3889 27.355 78.9989 27.64 78.4789 27.85C77.9689 28.05 77.3339 28.15 76.5739 28.15ZM85.098 28C84.498 28 83.993 27.895 83.583 27.685C83.173 27.475 82.868 27.165 82.668 26.755C82.468 26.335 82.368 25.815 82.368 25.195V21.79H81.183C81.083 21.79 80.998 21.755 80.928 21.685C80.858 21.615 80.823 21.525 80.823 21.415V20.56C80.823 20.46 80.858 20.375 80.928 20.305C80.998 20.235 81.083 20.2 81.183 20.2H82.368V17.71C82.368 17.61 82.398 17.525 82.458 17.455C82.528 17.385 82.618 17.35 82.728 17.35H83.943C84.043 17.35 84.128 17.385 84.198 17.455C84.268 17.525 84.303 17.61 84.303 17.71V20.2H86.178C86.278 20.2 86.363 20.235 86.433 20.305C86.503 20.375 86.538 20.46 86.538 20.56V21.415C86.538 21.525 86.503 21.615 86.433 21.685C86.363 21.755 86.278 21.79 86.178 21.79H84.303V25.045C84.303 25.455 84.373 25.775 84.513 26.005C84.663 26.235 84.918 26.35 85.278 26.35H86.313C86.413 26.35 86.498 26.385 86.568 26.455C86.638 26.525 86.673 26.61 86.673 26.71V27.64C86.673 27.74 86.638 27.825 86.568 27.895C86.498 27.965 86.413 28 86.313 28H85.098ZM88.5437 28C88.4437 28 88.3587 27.965 88.2887 27.895C88.2187 27.825 88.1837 27.74 88.1837 27.64V17.875C88.1837 17.765 88.2187 17.675 88.2887 17.605C88.3587 17.535 88.4437 17.5 88.5437 17.5H92.4287C93.6387 17.5 94.5937 17.78 95.2937 18.34C95.9937 18.9 96.3437 19.715 96.3437 20.785C96.3437 21.525 96.1587 22.14 95.7887 22.63C95.4287 23.12 94.9437 23.475 94.3337 23.695L96.5237 27.52C96.5537 27.58 96.5687 27.635 96.5687 27.685C96.5687 27.775 96.5337 27.85 96.4637 27.91C96.4037 27.97 96.3337 28 96.2537 28H94.8887C94.7187 28 94.5887 27.955 94.4987 27.865C94.4087 27.775 94.3387 27.685 94.2887 27.595L92.3537 24.04H90.2687V27.64C90.2687 27.74 90.2337 27.825 90.1637 27.895C90.1037 27.965 90.0187 28 89.9087 28H88.5437ZM90.2687 22.345H92.3837C92.9937 22.345 93.4487 22.21 93.7487 21.94C94.0487 21.66 94.1987 21.27 94.1987 20.77C94.1987 20.27 94.0487 19.88 93.7487 19.6C93.4587 19.31 93.0037 19.165 92.3837 19.165H90.2687V22.345ZM101.459 28.15C100.659 28.15 99.9836 28.01 99.4336 27.73C98.8936 27.45 98.4786 27.055 98.1886 26.545C97.9086 26.035 97.7486 25.44 97.7086 24.76C97.6986 24.58 97.6936 24.36 97.6936 24.1C97.6936 23.84 97.6986 23.62 97.7086 23.44C97.7486 22.75 97.9136 22.155 98.2036 21.655C98.5036 21.145 98.9236 20.75 99.4636 20.47C100.014 20.19 100.679 20.05 101.459 20.05C102.239 20.05 102.899 20.19 103.439 20.47C103.989 20.75 104.409 21.145 104.699 21.655C104.999 22.155 105.169 22.75 105.209 23.44C105.219 23.62 105.224 23.84 105.224 24.1C105.224 24.36 105.219 24.58 105.209 24.76C105.169 25.44 105.004 26.035 104.714 26.545C104.434 27.055 104.019 27.45 103.469 27.73C102.929 28.01 102.259 28.15 101.459 28.15ZM101.459 26.665C101.989 26.665 102.399 26.5 102.689 26.17C102.979 25.83 103.139 25.335 103.169 24.685C103.179 24.535 103.184 24.34 103.184 24.1C103.184 23.86 103.179 23.665 103.169 23.515C103.139 22.865 102.979 22.375 102.689 22.045C102.399 21.705 101.989 21.535 101.459 21.535C100.929 21.535 100.519 21.705 100.229 22.045C99.9386 22.375 99.7786 22.865 99.7486 23.515C99.7386 23.665 99.7336 23.86 99.7336 24.1C99.7336 24.34 99.7386 24.535 99.7486 24.685C99.7786 25.335 99.9386 25.83 100.229 26.17C100.519 26.5 100.929 26.665 101.459 26.665ZM108.796 28C108.656 28 108.551 27.965 108.481 27.895C108.411 27.825 108.351 27.735 108.301 27.625L106.156 20.665C106.146 20.615 106.141 20.57 106.141 20.53C106.141 20.44 106.171 20.365 106.231 20.305C106.301 20.235 106.376 20.2 106.456 20.2H107.566C107.686 20.2 107.781 20.235 107.851 20.305C107.921 20.365 107.961 20.425 107.971 20.485L109.441 25.45L111.001 20.53C111.021 20.46 111.066 20.39 111.136 20.32C111.206 20.24 111.311 20.2 111.451 20.2H112.201C112.341 20.2 112.446 20.24 112.516 20.32C112.586 20.39 112.631 20.46 112.651 20.53L114.211 25.45L115.681 20.485C115.691 20.425 115.726 20.365 115.786 20.305C115.856 20.235 115.951 20.2 116.071 20.2H117.181C117.271 20.2 117.346 20.235 117.406 20.305C117.476 20.365 117.511 20.44 117.511 20.53C117.511 20.57 117.501 20.615 117.481 20.665L115.336 27.625C115.306 27.735 115.251 27.825 115.171 27.895C115.101 27.965 114.996 28 114.856 28H113.881C113.751 28 113.641 27.965 113.551 27.895C113.471 27.825 113.416 27.735 113.386 27.625L111.826 22.885L110.266 27.625C110.226 27.735 110.166 27.825 110.086 27.895C110.016 27.965 109.906 28 109.756 28H108.796ZM119.51 28C119.41 28 119.325 27.965 119.255 27.895C119.185 27.825 119.15 27.74 119.15 27.64V17.875C119.15 17.765 119.185 17.675 119.255 17.605C119.325 17.535 119.41 17.5 119.51 17.5H123.53C124.31 17.5 124.99 17.625 125.57 17.875C126.15 18.115 126.6 18.485 126.92 18.985C127.24 19.475 127.4 20.09 127.4 20.83C127.4 21.58 127.24 22.2 126.92 22.69C126.6 23.17 126.15 23.53 125.57 23.77C124.99 24.01 124.31 24.13 123.53 24.13H121.295V27.64C121.295 27.74 121.26 27.825 121.19 27.895C121.13 27.965 121.045 28 120.935 28H119.51ZM121.265 22.465H123.455C124.035 22.465 124.48 22.33 124.79 22.06C125.1 21.78 125.255 21.37 125.255 20.83C125.255 20.33 125.11 19.93 124.82 19.63C124.53 19.32 124.075 19.165 123.455 19.165H121.265V22.465ZM129.321 28C129.221 28 129.136 27.965 129.066 27.895C128.996 27.825 128.961 27.74 128.961 27.64V20.56C128.961 20.46 128.996 20.375 129.066 20.305C129.136 20.235 129.221 20.2 129.321 20.2H130.566C130.676 20.2 130.761 20.235 130.821 20.305C130.891 20.375 130.926 20.46 130.926 20.56V27.64C130.926 27.74 130.891 27.825 130.821 27.895C130.761 27.965 130.676 28 130.566 28H129.321ZM129.261 18.91C129.161 18.91 129.076 18.875 129.006 18.805C128.936 18.735 128.901 18.65 128.901 18.55V17.47C128.901 17.37 128.936 17.285 129.006 17.215C129.076 17.145 129.161 17.11 129.261 17.11H130.626C130.736 17.11 130.826 17.145 130.896 17.215C130.966 17.285 131.001 17.37 131.001 17.47V18.55C131.001 18.65 130.966 18.735 130.896 18.805C130.826 18.875 130.736 18.91 130.626 18.91H129.261ZM136.335 28.15C135.615 28.15 134.98 28.015 134.43 27.745C133.89 27.475 133.465 27.085 133.155 26.575C132.855 26.055 132.69 25.43 132.66 24.7C132.65 24.55 132.645 24.355 132.645 24.115C132.645 23.865 132.65 23.66 132.66 23.5C132.69 22.77 132.855 22.15 133.155 21.64C133.465 21.12 133.89 20.725 134.43 20.455C134.98 20.185 135.615 20.05 136.335 20.05C136.975 20.05 137.52 20.14 137.97 20.32C138.42 20.49 138.79 20.715 139.08 20.995C139.37 21.265 139.585 21.55 139.725 21.85C139.875 22.14 139.955 22.405 139.965 22.645C139.975 22.755 139.94 22.845 139.86 22.915C139.79 22.975 139.705 23.005 139.605 23.005H138.285C138.185 23.005 138.105 22.98 138.045 22.93C137.995 22.88 137.945 22.805 137.895 22.705C137.745 22.305 137.545 22.025 137.295 21.865C137.055 21.695 136.745 21.61 136.365 21.61C135.865 21.61 135.465 21.77 135.165 22.09C134.875 22.4 134.72 22.895 134.7 23.575C134.68 23.955 134.68 24.305 134.7 24.625C134.72 25.315 134.875 25.815 135.165 26.125C135.465 26.435 135.865 26.59 136.365 26.59C136.755 26.59 137.07 26.51 137.31 26.35C137.55 26.18 137.745 25.895 137.895 25.495C137.945 25.395 137.995 25.32 138.045 25.27C138.105 25.22 138.185 25.195 138.285 25.195H139.605C139.705 25.195 139.79 25.23 139.86 25.3C139.94 25.36 139.975 25.445 139.965 25.555C139.955 25.735 139.905 25.94 139.815 26.17C139.735 26.39 139.6 26.62 139.41 26.86C139.23 27.09 139 27.305 138.72 27.505C138.44 27.695 138.1 27.85 137.7 27.97C137.31 28.09 136.855 28.15 136.335 28.15ZM141.904 28C141.804 28 141.719 27.965 141.649 27.895C141.579 27.825 141.544 27.74 141.544 27.64V17.71C141.544 17.61 141.579 17.525 141.649 17.455C141.719 17.385 141.804 17.35 141.904 17.35H143.119C143.229 17.35 143.314 17.385 143.374 17.455C143.444 17.525 143.479 17.61 143.479 17.71V22.84L145.999 20.455C146.099 20.375 146.179 20.315 146.239 20.275C146.309 20.225 146.414 20.2 146.554 20.2H147.949C148.049 20.2 148.129 20.23 148.189 20.29C148.249 20.35 148.279 20.43 148.279 20.53C148.279 20.57 148.269 20.615 148.249 20.665C148.229 20.715 148.189 20.76 148.129 20.8L145.039 23.695L148.504 27.415C148.604 27.515 148.654 27.6 148.654 27.67C148.654 27.77 148.619 27.85 148.549 27.91C148.489 27.97 148.414 28 148.324 28H146.899C146.749 28 146.639 27.98 146.569 27.94C146.509 27.89 146.434 27.825 146.344 27.745L143.479 24.73V27.64C143.479 27.74 143.444 27.825 143.374 27.895C143.314 27.965 143.229 28 143.119 28H141.904Z" fill="white"/>
</svg>
